<svg width="104" height="23" viewBox="0 0 104 23" fill="none" xmlns="http://www.w3.org/2000/svg">
<path d="M7.325 18.4555L8.565 13.5339L4.442 10.225L9.873 9.78959L12 5.14771L14.127 9.78867L19.557 10.224L15.435 13.5329L16.675 18.4546L12 15.8423L7.325 18.4555Z" fill="#CCA134"/>
<path d="M27.325 18.4555L28.565 13.5339L24.442 10.225L29.873 9.78959L32 5.14771L34.127 9.78867L39.557 10.224L35.435 13.5329L36.675 18.4546L32 15.8423L27.325 18.4555Z" fill="#CCA134"/>
<path d="M47.325 18.4555L48.565 13.5339L44.442 10.225L49.873 9.78959L52 5.14771L54.127 9.78867L59.557 10.224L55.435 13.5329L56.675 18.4546L52 15.8423L47.325 18.4555Z" fill="#CCA134"/>
<path d="M67.325 18.4555L68.565 13.5339L64.442 10.225L69.873 9.78959L72 5.14771L74.127 9.78867L79.557 10.224L75.435 13.5329L76.675 18.4546L72 15.8423L67.325 18.4555Z" fill="#CCA134"/>
<path d="M87.325 18.4555L88.565 13.5339L84.442 10.225L89.873 9.78959L92 5.14771L94.127 9.78867L99.557 10.224L95.435 13.5329L96.675 18.4546L92 15.8423L87.325 18.4555Z" fill="#6C6C6C"/>
</svg>
